{"title":"Bonnie and Clyde 2013 Part Two 720p BluRay x264 AC3 Dual NDL","uid":11393815,"size":4315826004,"categoryP":"video","categoryS":"hd___movies","magnet":"?xt=urn:btih:709ccab425970cf5d044551d3ec848f26a4dd3e0&amp;dn=Bonnie+and+Clyde+2013+Part+Two+720p+BluRay+x264+AC3+Dual+NDL&amp;tr=udp%3A%2F%2Ftracker.openbittorrent.com%3A80&amp;tr=udp%3A%2F%2Fopen.demonii.com%3A1337&amp;tr=udp%3A%2F%2Ftracker.coppersurfer.tk%3A6969&amp;tr=udp%3A%2F%2Fexodus.desync.com%3A6969","seeders":1,"leechers":0,"uploader":"Alemao99","files":3,"time":1415360946,"description":"Emile Hirsch and Holliday Grainger return as Bonnie and Clyde. Bonnie Clyde convinces to commit more risky and dangerous crimes that cause the force of law behind them go in hot pursuit. While the news about their antics outside the law spread, they quickly become the most notorious criminals of the modern era - also starring Holly Hunter and William Hurt.\n\nTitle in Brazil: Bonnie and Clyde - The Wanted\nOriginal Title: Bonnie and Clyde Part Two\nDirector: Bruce Beresford\nDuration: 90 Min\nDebut in Brazil: 2014\nGenre: Crime / Biography\nIMDB: http://www.imdb.com/title/tt2707792/\n\nSize: 4.02 GB\nFile extension: .MKV\nVideo Quality: Bluray\nVideo codec: H.264 / AVC\nAudio Codec: AC3 5.1\nResolution: 1280 x 720\nAudio Language: Portuguese / English\nSubtitles: Portuguese\n\n\nFormat                                   : Matroska\nFormat version                           : Version 2\nFile size                                : 4.02 GiB\nDuration                                 : 1h 30mn\nOverall bit rate                         : 6 339 Kbps\nEncoded date                             : UTC 2014-10-31 16:25:32\nWriting application                      : mkvmerge v7.0.0 ('Where We Going') 32bit built on Jun  9 2014 15:08:34\nWriting library                          : libebml v1.3.0 + libmatroska v1.4.1\n_STATISTICS_WRITING_APP                  : mkvmerge v7.0.0 ('Where We Going') 32bit built on Jun  9 2014 15:08:34\n_STATISTICS_WRITING_DATE_UTC             : 2014-10-31 16:25:32\n_STATISTICS_TAGS                         : BPS DURATION NUMBER_OF_FRAMES NUMBER_OF_BYTES\nDURATION                                 : 01:30:46.944000000\nNUMBER_OF_FRAMES                         : 170217\nNUMBER_OF_BYTES                          : 435755520\n\nVideo\nID                                       : 1\nFormat                                   : AVC\nFormat/Info                              : Advanced Video Codec\nFormat profile                           : &lt;a class=&quot;__cf_email__&quot; href=&quot;/cdn-cgi/l/email-protection&quot; data-cfemail=&quot;1b53727c735b5728352a&quot;&gt;[email&amp;#160;protected]&lt;/a&gt;&lt;script cf-hash='f9e31' type=&quot;text/javascript&quot;&gt;\n/* &lt;![CDATA[ */!function(){try{var t=&quot;currentScript&quot;in document?document.currentScript:function(){for(var t=document.getElementsByTagName(&quot;script&quot;),e=t.length;e--;)if(t[e].getAttribute(&quot;cf-hash&quot;))return t[e]}();if(t&amp;&amp;t.previousSibling){var e,r,n,i,c=t.previousSibling,a=c.getAttribute(&quot;data-cfemail&quot;);if(a){for(e=&quot;&quot;,r=parseInt(a.substr(0,2),16),n=2;a.length-n;n+=2)i=parseInt(a.substr(n,2),16)^r,e+=String.fromCharCode(i);e=document.createTextNode(e),c.parentNode.replaceChild(e,c)}}}catch(u){}}();/* ]]&gt; */&lt;/script&gt;\nFormat settings, CABAC                   : Yes\nFormat settings, ReFrames                : 4 frames\nCodec ID                                 : V_MPEG4/ISO/AVC\nDuration                                 : 1h 30mn\nBit rate                                 : 5 250 Kbps\nWidth                                    : 1 280 pixels\nHeight                                   : 720 pixels\nDisplay aspect ratio                     : 16:9\nFrame rate                               : 23.976 fps\nColor space                              : YUV\nChroma subsampling                       : 4:2:0\nBit depth                                : 8 bits\nScan type                                : Progressive\nBits/(Pixel*Frame)                       : 0.238\nStream size                              : 3.25 GiB (81%)\nTitle                                    : BluRay - 720p - Dual - NDL\nWriting library                          : x264 core 142 r2431 ac76440\nEncoding settings                        : cabac=1 / ref=3 / deblock=1:0:0 / analyse=0x3:0x113 / me=hex / subme=7 / psy=1 / psy_rd=1.00:0.00 / mixed_ref=1 / me_range=16 / chroma_me=1 / trellis=1 / 8x8dct=1 / cqm=0 / deadzone=21,11 / fast_pskip=1 / chroma_qp_offset=-2 / threads=6 / lookahead_threads=1 / sliced_threads=0 / nr=0 / decimate=1 / interlaced=0 / bluray_compat=0 / constrained_intra=0 / bframes=3 / b_pyramid=2 / b_adapt=1 / b_bias=0 / direct=1 / weightb=1 / open_gop=0 / weightp=2 / keyint=240 / keyint_min=23 / scenecut=40 / intra_refresh=0 / rc_lookahead=40 / rc=2pass / mbtree=1 / bitrate=5250 / ratetol=1.0 / qcomp=0.60 / qpmin=0 / qpmax=69 / qpstep=4 / cplxblur=20.0 / qblur=0.5 / ip_ratio=1.40 / aq=1:1.00\nDefault                                  : Yes\nForced                                   : No\n\nAudio #1\nID                                       : 2\nFormat                                   : AC-3\nFormat/Info                              : Audio Coding 3\nMode extension                           : CM (complete main)\nFormat settings, Endianness              : Big\nCodec ID                                 : A_AC3\nDuration                                 : 1h 30mn\nBit rate mode                            : Constant\nBit rate                                 : 448 Kbps\nChannel(s)                               : 6 channels\nChannel positions                        : Front: L C R, Side: L R, LFE\nSampling rate                            : 48.0 KHz\nBit depth                                : 16 bits\nCompression mode                         : Lossy\nDelay relative to video                  : 14ms\nStream size                              : 291 MiB (7%)\nTitle                                    : NDL\nLanguage                                 : Portuguese\nDefault                                  : Yes\nForced                                   : No\n\nAudio #2\nID                                       : 3\nFormat                                   : AC-3\nFormat/Info                              : Audio Coding 3\nMode extension                           : CM (complete main)\nFormat settings, Endianness              : Big\nCodec ID                                 : A_AC3\nDuration                                 : 1h 30mn\nBit rate mode                            : Constant\nBit rate                                 : 640 Kbps\nChannel(s)                               : 6 channels\nChannel positions                        : Front: L C R, Side: L R, LFE\nSampling rate                            : 48.0 KHz\nBit depth                                : 16 bits\nCompression mode                         : Lossy\nStream size                              : 416 MiB (10%)\nTitle                                    : NDL\nLanguage                                 : English\nDefault                                  : No\nForced                                   : No\n\n\n\n\nSEED PLEASE\n\nENJOY","torrent":{"xt":"urn:btih:709ccab425970cf5d044551d3ec848f26a4dd3e0","amp;dn":"Bonnie+and+Clyde+2013+Part+Two+720p+BluRay+x264+AC3+Dual+NDL","amp;tr":["udp%3A%2F%2Ftracker.openbittorrent.com%3A80","udp%3A%2F%2Fopen.demonii.com%3A1337","udp%3A%2F%2Ftracker.coppersurfer.tk%3A6969","udp%3A%2F%2Fexodus.desync.com%3A6969"],"infoHash":"709ccab425970cf5d044551d3ec848f26a4dd3e0","infoHashBuffer":{"type":"Buffer","data":[112,156,202,180,37,151,12,245,208,68,85,29,62,200,72,242,106,77,211,224]},"announce":[],"urlList":[]}}